<?xml version="1.0" standalone="no"?>
<!DOCTYPE svg PUBLIC "-//W3C//DTD SVG 20010904//EN"
 "http://www.w3.org/TR/2001/REC-SVG-20010904/DTD/svg10.dtd">
<svg version="1.0" xmlns="http://www.w3.org/2000/svg"
 width="586.000000pt" height="112.000000pt" viewBox="0 0 586.000000 112.000000"
 preserveAspectRatio="xMidYMid meet">
<metadata>
Created by potrace 1.16, written by Peter Selinger 2001-2019
</metadata>
<g transform="translate(0.000000,112.000000) scale(0.100000,-0.100000)"
fill="#000000" stroke="none">
<path d="M415 1046 l-99 -74 -158 -382 c-87 -210 -158 -389 -158 -398 0 -9 26
-55 57 -104 l58 -88 213 0 213 0 59 40 c32 22 63 40 68 40 5 0 21 -18 36 -40
l26 -40 378 0 378 0 15 42 16 43 76 3 c43 2 77 0 77 -3 0 -3 -7 -22 -15 -42
-8 -19 -15 -37 -15 -39 0 -2 236 -4 524 -4 516 0 525 0 531 20 8 25 17 25 33
0 11 -19 23 -20 205 -20 l192 0 52 35 52 35 21 -35 22 -35 811 2 c637 2 811 6
815 15 3 10 -123 13 -607 13 -538 0 -610 2 -605 15 8 19 -5 19 -30 0 -16 -12
-56 -15 -192 -15 l-172 0 -28 44 -28 44 -65 -44 -66 -44 -171 0 -172 0 -30 46
-30 47 -20 -47 -21 -46 -485 0 c-267 0 -486 2 -486 4 0 2 7 20 15 39 8 20 15
39 15 42 0 3 -51 5 -112 5 l-113 0 -18 -45 -19 -45 -164 0 c-106 0 -164 4
-164 10 0 7 -6 7 -19 0 -11 -6 -92 -10 -189 -10 l-170 0 -32 50 c-18 28 -35
50 -39 50 -3 0 -40 -23 -81 -50 l-75 -50 -192 0 -193 0 -54 81 c-55 82 -55 82
-40 118 8 20 78 190 157 378 l142 342 94 71 94 70 193 0 193 0 41 -60 41 -60
404 0 405 0 2 -172 3 -172 137 172 138 171 136 3 136 3 22 55 22 55 260 2 259
3 53 -81 c29 -45 51 -87 48 -95 -3 -8 15 1 41 21 l46 35 167 0 168 0 32 -50
32 -51 34 26 c112 83 83 75 266 75 l165 0 28 -42 28 -43 18 43 18 42 868 -7
c477 -3 869 -7 871 -8 1 -1 -17 -50 -40 -108 l-43 -107 -71 0 c-64 0 -72 -2
-81 -22 -6 -13 -70 -169 -143 -348 -73 -179 -136 -329 -140 -333 -4 -5 -90 -9
-190 -10 -137 -2 -184 -5 -187 -14 -4 -10 41 -13 199 -13 l204 0 144 350 144
350 71 0 71 0 57 138 c31 76 57 144 57 150 0 9 -213 12 -909 12 l-910 0 -6
-21 -7 -21 -15 21 c-13 20 -23 21 -202 21 l-188 0 -46 -35 c-25 -19 -49 -35
-54 -35 -4 0 -18 16 -31 35 l-22 35 -188 0 c-156 0 -191 -3 -210 -16 -13 -9
-24 -14 -25 -13 -2 2 -24 37 -50 77 l-47 72 -284 0 -284 0 -24 -60 -23 -60
-135 0 -135 -1 -58 -74 -59 -75 -54 0 -54 0 0 75 0 75 -409 0 -409 0 -38 60
-39 60 -216 0 -216 0 -98 -74z"/>
<path d="M353 778 c-6 -7 -14 -24 -18 -38 -4 -14 -40 -101 -80 -195 -40 -93
-89 -209 -109 -258 l-36 -87 33 -50 32 -50 163 0 163 0 75 51 c78 52 78 53
124 170 l20 50 -107 -3 -106 -3 -32 -75 -32 -75 -58 -3 c-44 -2 -56 0 -52 10
3 7 53 130 112 273 58 143 109 266 112 273 4 9 -14 12 -73 12 -44 0 -88 3
-100 6 -11 3 -25 -1 -31 -8z"/>
<path d="M973 763 c-4 -10 -59 -144 -124 -298 l-117 -279 30 -43 29 -43 140 0
140 0 62 42 c34 22 63 42 65 44 2 1 52 123 112 271 l109 268 -42 4 -42 5 50 5
c37 5 51 11 53 24 3 15 -6 17 -88 17 -77 0 -91 -3 -96 -17 -6 -18 -74 -184
-182 -440 l-55 -133 -49 0 c-36 0 -49 3 -45 12 3 7 51 125 106 261 56 137 108
261 116 277 8 16 15 31 15 35 0 3 -41 5 -90 5 -77 0 -92 -3 -97 -17z"/>
<path d="M1480 706 c-5 -12 -34 -82 -65 -156 -94 -223 -185 -442 -185 -447 0
-2 41 -2 92 -1 l92 3 65 162 c36 90 69 163 73 163 4 0 9 -53 10 -117 l3 -118
86 -3 87 -3 88 111 c48 60 89 110 91 110 3 0 -15 -47 -80 -203 l-45 -107 93 0
93 0 90 222 c134 330 145 359 141 363 -2 2 -58 6 -124 10 l-120 6 -110 -138
-110 -138 -3 142 c-3 166 13 150 -150 156 -98 4 -104 3 -112 -17z"/>
<path d="M2317 673 c-13 -22 -237 -559 -237 -568 0 -3 48 -4 106 -3 l107 3 30
78 30 77 58 0 58 0 -34 -80 -34 -80 108 0 109 0 22 59 22 59 -21 40 c-12 23
-21 46 -21 52 0 6 24 21 53 34 l53 23 57 144 c31 78 55 144 54 145 -1 1 -46 4
-100 5 l-99 3 -55 -130 c-30 -71 -57 -137 -60 -146 -4 -15 -17 -18 -64 -18
l-59 0 17 43 c9 23 36 89 59 147 l42 105 -26 6 c-39 9 -170 10 -175 2z"/>
<path d="M2927 619 c-147 -347 -177 -420 -177 -431 0 -7 11 -30 25 -51 l26
-37 142 0 142 0 64 43 63 42 89 220 c48 121 87 220 86 222 -1 1 -40 3 -87 4
l-84 2 -83 -194 c-45 -107 -87 -206 -92 -221 -9 -26 -14 -28 -60 -28 -48 0
-50 1 -41 22 5 13 45 113 89 222 45 110 80 201 78 202 -2 2 -39 6 -84 10 l-82
7 -14 -34z"/>
<path d="M3452 603 c-24 -47 -172 -403 -172 -415 0 -7 11 -30 25 -51 l26 -37
142 0 142 0 63 42 c57 39 67 50 93 111 16 38 29 71 29 73 0 3 -41 3 -92 2
l-91 -3 -28 -65 -27 -65 -50 -3 -50 -3 83 208 c59 146 80 210 72 215 -7 4 -44
8 -84 8 -59 0 -74 -3 -81 -17z"/>
<path d="M3981 568 c-5 -13 -19 -45 -31 -73 -51 -116 -160 -379 -160 -387 0
-4 40 -8 89 -8 l89 0 28 70 29 70 48 0 c26 0 47 -2 47 -5 0 -3 -11 -33 -25
-67 -14 -34 -25 -63 -25 -65 0 -2 41 -2 92 -1 l92 3 19 48 20 49 -21 42 -20
43 47 23 c48 22 48 23 94 138 25 64 44 118 43 120 -2 1 -40 3 -86 5 l-82 2
-53 -120 -52 -120 -46 -3 c-26 -2 -47 1 -47 5 0 5 20 60 45 123 25 63 45 118
45 122 0 5 -38 8 -85 8 -79 0 -86 -2 -94 -22z"/>
<path d="M4518 500 c-28 -61 -140 -329 -159 -377 l-9 -23 234 0 234 0 16 40
c9 22 16 43 16 45 0 3 -63 5 -140 5 l-140 0 12 25 c10 21 18 25 57 25 46 0 47
1 63 45 l17 45 -44 0 -44 0 24 63 c13 34 32 85 44 114 l20 52 -86 3 -86 3 -29
-65z"/>
<path d="M5220 483 c-21 -47 -134 -317 -151 -361 -8 -22 -8 -22 84 -22 l92 0
83 206 c45 114 81 208 80 209 -2 2 -40 6 -85 10 l-81 7 -22 -49z"/>
</g>
</svg>
