<svg xmlns="http://www.w3.org/2000/svg" xmlns:xlink="http://www.w3.org/1999/xlink" viewBox="0 0 354.55 58.52"><defs><style>.cls-1{fill:#8b96b0;}.cls-2{fill:#fff;}.cls-3{fill:url(#linear-gradient);}.cls-4{fill:url(#linear-gradient-2);}.cls-5{fill:url(#linear-gradient-3);}</style><linearGradient id="linear-gradient" x1="30.08" y1="5.37" x2="30.08" y2="26.82" gradientUnits="userSpaceOnUse"><stop offset="0" stop-color="#fff"/><stop offset="1" stop-color="#aee8ff"/></linearGradient><linearGradient id="linear-gradient-2" x1="11.05" y1="15.56" x2="11.05" y2="41.17" gradientTransform="translate(6.95 -1.22) rotate(13.49)" xlink:href="#linear-gradient"/><linearGradient id="linear-gradient-3" x1="30.69" y1="33.7" x2="30.69" y2="46.72" xlink:href="#linear-gradient"/></defs><g id="Layer_2" data-name="Layer 2"><g id="Layer_1-2" data-name="Layer 1"><path class="cls-1" d="M335.91,10.65a15.86,15.86,0,0,0-9,2.52,7.94,7.94,0,0,0-13.58,5.75V35.81a4.4,4.4,0,0,0-2.85-1.06,5.09,5.09,0,0,0-1.55.22V25.19c0-9.24-5.86-14.54-16.1-14.54-6.8,0-12.37,2.11-16.12,6.09-.64-3.64-3.75-6.09-8-6.09a7.66,7.66,0,0,0-7.75,6.23l-2.6,11.18-3.13-9.66c-.61-1.91-2.48-7.72-9.43-7.72s-8.78,5.81-9.39,7.72l-3.13,9.66-2.61-11.19a7.65,7.65,0,0,0-7.74-6.22,8.82,8.82,0,0,0-5.23,1.58,9.06,9.06,0,0,0-4.36-7.34A28.19,28.19,0,0,0,197.38,0c-12.14,0-20.29,6.94-20.29,17.26,0,7,3.41,10.92,7.55,13.13a7.53,7.53,0,0,0-1.32-.12,7.73,7.73,0,0,0-5.9,2.75V27.38c0-10-6.53-16.73-16.26-16.73-4.81,0-8.63,1.16-11.39,3.46a16,16,0,0,0-10.38-3.46,14.21,14.21,0,0,0-8.34,2.47,7.68,7.68,0,0,0-5.67-2.31,7.58,7.58,0,0,0-7,4.23,7.57,7.57,0,0,0-7-4.31,7.73,7.73,0,0,0-7.86,8.11V32.57c0,2.41-1.28,3.79-3.51,3.79s-3.48-1.24-3.48-3.79V18.84a7.82,7.82,0,0,0-7.86-8.11,7.69,7.69,0,0,0-6,2.78,9.69,9.69,0,0,0-2.4-5.38C75.48,2.58,69.22,0,60.53,0,46,0,35.81,10.51,35.81,25.56S46,51,60.53,51c8.56,0,15-2.69,19.75-8.22a11.21,11.21,0,0,0,1.49-2.22C83.91,47,89.43,50.92,97,50.92a14.78,14.78,0,0,0,8.62-2.51,7.71,7.71,0,0,0,5.7,2.35,7.58,7.58,0,0,0,7-4.23,7.55,7.55,0,0,0,7,4.31,7.72,7.72,0,0,0,7.86-8.11V29c0-1.14.31-3.8,3.2-3.8.79,0,3.17,0,3.17,3.8V42.73a7.86,7.86,0,1,0,15.72,0V29c0-1.14.31-3.8,3.2-3.8.79,0,3.17,0,3.17,3.8V42.73a7.86,7.86,0,0,0,15.7.56A12.35,12.35,0,0,0,180,45.77,28.32,28.32,0,0,0,197.29,51c12.75,0,21-6.82,21-17.39,0-.27,0-.52,0-.78l1.88,7.09C222,47.07,226.21,51,231.93,51s9.74-3.69,12.09-11l1.79-5.51,1.77,5.5c2.35,7.29,6.42,11,12.08,11s9.93-3.94,11.81-11.08L275.15,26a6.17,6.17,0,0,0,4.15,2.75c-3.38,2.2-5.08,5.53-5.08,9.94C274.22,46,280,51,288.16,51a15.72,15.72,0,0,0,9.31-2.82,10.92,10.92,0,0,0,7.29,2.66,11.33,11.33,0,0,0,8.17-3.67c.14-.17.26-.34.39-.51v3.75a7.86,7.86,0,1,0,15.72,0v-.54A18.31,18.31,0,0,0,335.91,51c10.8,0,18.64-8.48,18.64-20.17S346.71,10.65,335.91,10.65ZM201.3,34.78s0,0,0,.06a.15.15,0,0,1,0,.06c-.08.13-.79.6-2.91.6-2.71,0-6.24-1.27-9.95-3.58.79.24,1.58.43,2.34.58L200,34.35A3.8,3.8,0,0,1,201.3,34.78Zm-5.22-18.06a5.9,5.9,0,0,1-1.89-.61s0-.07,0-.14a.31.31,0,0,1,0-.09,2.68,2.68,0,0,1,1.78-.41c2.67,0,5.69,1.59,7.73,2.79l.62.36ZM338.55,30.83c0,3.3-1.95,5.52-4.83,5.52s-4.84-2.22-4.84-5.52,1.95-5.52,4.84-5.52S338.55,27.52,338.55,30.83ZM74.91,28.58a10.31,10.31,0,0,0-6.74,2.72c-2.63,2.32-4.72,3.23-7.45,3.23-4.9,0-8.19-3.6-8.19-9s3.29-9.09,8.19-9.09c2.8,0,4.88.9,7.43,3.21a10.07,10.07,0,0,0,6.64,2.71,7.84,7.84,0,0,0,6-2.82V31.31A7.75,7.75,0,0,0,74.91,28.58ZM210.2,20.51h.22a7.19,7.19,0,0,0,4.4-1.41,9.61,9.61,0,0,0,.27,1.79L216.44,26A13.64,13.64,0,0,0,210.2,20.51Z"/><path class="cls-2" d="M37.81,25.56C37.81,11.62,47.12,2,60.53,2,68.42,2,74.25,4.22,78.7,9.43a7.56,7.56,0,0,1,2,5,6,6,0,0,1-5.89,6,8,8,0,0,1-5.3-2.19c-2.69-2.44-5.23-3.73-8.77-3.73-6,0-10.19,4.61-10.19,11.09s4.17,11,10.19,11c3.54,0,6.08-1.35,8.77-3.73a8.35,8.35,0,0,1,5.42-2.22,5.93,5.93,0,0,1,5.83,6,7.47,7.47,0,0,1-2,4.89C74.32,46.68,68.42,49,60.53,49,47.12,49,37.81,39.44,37.81,25.56Z"/><path class="cls-2" d="M117.22,18.84V42.65c0,3.61-2.41,6.11-5.86,6.11A5.56,5.56,0,0,1,106,45.38c-2,2.32-5.36,3.54-9,3.54-8.33,0-14.25-5.29-14.25-14.73V18.84a5.87,5.87,0,1,1,11.72,0V32.57c0,3.66,2.06,5.79,5.48,5.79s5.51-2.25,5.51-5.79V18.84a5.73,5.73,0,0,1,5.86-6.11C114.81,12.73,117.22,15.24,117.22,18.84Z"/><path class="cls-2" d="M163.7,42.73V29c0-3.67-1.94-5.8-5.17-5.8s-5.2,2.26-5.2,5.8V42.73a5.87,5.87,0,1,1-11.72,0V29c0-3.67-1.94-5.8-5.17-5.8s-5.2,2.26-5.2,5.8V42.73c0,3.61-2.41,6.11-5.86,6.11s-5.86-2.5-5.86-6.11V18.92a5.73,5.73,0,0,1,5.86-6.11,5.52,5.52,0,0,1,5.3,3.35c1.94-2.32,5.2-3.51,8.71-3.51a13.64,13.64,0,0,1,10.4,4.23c2-2.38,5.55-4.23,11.37-4.23,8.15,0,14.26,5.3,14.26,14.73V42.73a5.87,5.87,0,1,1-11.72,0Z"/><path class="cls-2" d="M181.18,44.14c-2.44-1.75-3.63-3.82-3.63-6a5.79,5.79,0,0,1,5.77-5.86,7.88,7.88,0,0,1,4,1.31c3.76,2.35,7.7,3.92,11.06,3.92s4.92-1.07,4.92-2.66c0-1.41-1-2.07-2.95-2.45l-9.18-1.85c-8.08-1.63-12.09-6-12.09-13.28C179.09,8.11,186.23,2,197.38,2A26.16,26.16,0,0,1,212.2,6.54a7.08,7.08,0,0,1,3.51,6.18c0,3.19-1.91,5.79-5.29,5.79a11.43,11.43,0,0,1-5.7-2c-2.14-1.25-5.52-3.07-8.75-3.07-2.13,0-3.79.78-3.79,2.5s1.1,2.17,3.45,2.7l8.71,2c6.64,1.54,11.94,4.58,11.94,12.94,0,9.5-7.55,15.39-19,15.39A26.39,26.39,0,0,1,181.18,44.14Z"/><path class="cls-2" d="M222.06,39.41l-5-19a8.32,8.32,0,0,1-.25-2.19c0-3.32,2.44-5.52,6.14-5.52a5.69,5.69,0,0,1,5.8,4.67l4.23,18.21L238.29,19c1-3.22,2.89-6.33,7.49-6.33s6.49,3.11,7.52,6.33l5.36,16.52,4.23-18.21a5.69,5.69,0,0,1,5.8-4.67c3.69,0,6.14,2.2,6.14,5.52a8.32,8.32,0,0,1-.25,2.19l-5.05,19c-1.31,5-4.13,9.59-9.87,9.59-4.88,0-8.14-3.29-10.18-9.59L245.81,28l-3.69,11.4c-2,6.3-5.3,9.59-10.19,9.59C226.2,49,223.38,44.39,222.06,39.41Z"/><path class="cls-2" d="M276.22,38.72c0-5.39,2.94-8.74,9-10.24l8.05-2c1.26-.31,1.95-1.06,1.95-2.1s-1-1.78-2.79-1.78A14,14,0,0,0,286,24.94c-2.53,1.53-3.73,2-5,2-2.85,0-4.73-1.66-4.73-4.23a6.23,6.23,0,0,1,1.88-4.54c3.38-3.64,8.55-5.52,14.72-5.52,8.78,0,14.1,4.17,14.1,12.54V37a.61.61,0,0,0,.66.66,1.82,1.82,0,0,0,1.07-.35,2.78,2.78,0,0,1,1.82-.59c1.66,0,2.94,1.69,2.94,3.88a7.49,7.49,0,0,1-2,5.24,9.36,9.36,0,0,1-6.65,3,8.87,8.87,0,0,1-7.14-3.38A13.23,13.23,0,0,1,288.16,49C281.08,49,276.22,44.83,276.22,38.72ZM291.54,40c2.19,0,3.67-1.29,3.67-3.17V33.46a6.3,6.3,0,0,1-2,.88l-2,.5a3.14,3.14,0,0,0-2.6,2.88C288.63,39.1,289.79,40,291.54,40Z"/><path class="cls-2" d="M315.32,50.41V18.92c0-3.6,2.38-6.11,5.86-6.11a5.54,5.54,0,0,1,5.3,3.29,13,13,0,0,1,9.43-3.45c9.4,0,16.64,7.21,16.64,18.18S345.31,49,335.91,49c-3.82,0-6.64-.75-8.87-2.6v4c0,3.6-2.38,6.11-5.86,6.11S315.32,54,315.32,50.41Zm18.4-12.06c4,0,6.83-3.11,6.83-7.52s-2.82-7.52-6.83-7.52-6.84,3.1-6.84,7.52S329.7,38.35,333.72,38.35Z"/><path class="cls-1" d="M47,16.33A11.56,11.56,0,0,0,43.2,7.89a17,17,0,0,0-9.79-4.11c-1.76-.17-3.53-.2-5.24-.23l-1.65,0-4.76-.11-4.12-.08c-.33,0-.69,0-1.07-.07l-.88-.07h-.17a2.31,2.31,0,0,0-2,1.08,2.36,2.36,0,0,0,0,2.37,5,5,0,0,0,.33.54l.06.08L16.23,11l5.31,8.21A25.69,25.69,0,0,0,28,26.33a11.59,11.59,0,0,0,6.89,2.3,13.12,13.12,0,0,0,4.63-.88C44.11,26,46.85,21.93,47,16.49Z"/><path class="cls-3" d="M45,16.62c-.13,4.36-2.1,7.92-6.21,9.45a9.84,9.84,0,0,1-9.66-1.18,23.56,23.56,0,0,1-5.92-6.62q-3.86-5.94-7.7-11.91c-.09-.15-.21-.28-.29-.44-.18-.37-.06-.57.35-.54.67,0,1.34.12,2,.13,2.95.08,5.91.12,8.87.2,2.25,0,4.51,0,6.75.25a15,15,0,0,1,8.66,3.62A9.59,9.59,0,0,1,45,16.62Z"/><path class="cls-1" d="M20,35.44c0-.17.08-.43.11-.69A12.07,12.07,0,0,0,18.48,27c-1.24-2.2-2.57-4.38-3.86-6.49l-1.27-2.08c-.72-1.19-1.49-2.44-2.52-4.06a2.78,2.78,0,0,0-1.64-1.31h0a2.29,2.29,0,0,0-2.65,1.48l-.75,1.76-.87,2q-1,2.28-2,4.55l-.65,1.45A22.05,22.05,0,0,0,0,32.46,10.29,10.29,0,0,0,6.5,42.79a10.52,10.52,0,0,0,1.32.4A10,10,0,0,0,20,35.71l0-.08,0-.09Z"/><path class="cls-4" d="M18,35.4A8,8,0,0,1,7.16,41.1,8.28,8.28,0,0,1,2,32.72,20,20,0,0,1,4,25.33c.89-2,1.79-4,2.67-6,.56-1.25,1.08-2.52,1.63-3.78.21-.48.41-.47.76.09q1.27,2,2.51,4c1.71,2.83,3.47,5.63,5.1,8.51a10.21,10.21,0,0,1,1.42,6.49C18.08,35,18,35.29,18,35.4Z"/><path class="cls-1" d="M32.4,34.75l-2.18-1.22c-1.26-.7-2.56-1.42-3.85-2.12a2,2,0,0,0-2.95,1.85c0,.43,0,.71.08,1,.13.76.25,1.52.37,2.28.33,2.11.67,4.28,1.09,6.42a6.73,6.73,0,0,0,2.63,4.33,6,6,0,0,0,3.58,1.12,6.93,6.93,0,0,0,5-2.11,6.31,6.31,0,0,0,.37-8.3A12.92,12.92,0,0,0,32.4,34.75Z"/><path class="cls-5" d="M25.55,33.7c2,1.1,4,2.11,5.88,3.16A11.08,11.08,0,0,1,35,39.56a4.27,4.27,0,0,1-.26,5.68,4.73,4.73,0,0,1-5.93.75,4.83,4.83,0,0,1-1.84-3.1c-.55-2.86-1-5.76-1.44-8.64A2.19,2.19,0,0,1,25.55,33.7Z"/></g></g></svg>