<svg xmlns="http://www.w3.org/2000/svg" xmlns:xlink="http://www.w3.org/1999/xlink" viewBox="0 0 93.91 16"><defs><style>.cls-1{fill:#484868;}.cls-2{fill:#fff;}.cls-3{fill:url(#linear-gradient);}.cls-4{fill:url(#linear-gradient-2);}.cls-5{fill:url(#linear-gradient-3);}</style><linearGradient id="linear-gradient" x1="7.03" y1="1.69" x2="7.03" y2="7.05" gradientUnits="userSpaceOnUse"><stop offset="0" stop-color="#e9f9ff"/><stop offset="1" stop-color="#a3e0f7"/></linearGradient><linearGradient id="linear-gradient-2" x1="-3.14" y1="-293.05" x2="-1.51" y2="-286.24" gradientTransform="translate(-62.39 289.98) rotate(13.49)" xlink:href="#linear-gradient"/><linearGradient id="linear-gradient-3" x1="7.6" y1="8.98" x2="7.6" y2="12.42" xlink:href="#linear-gradient"/></defs><g id="Layer_2" data-name="Layer 2"><g id="Layer_1-2" data-name="Layer 1"><path class="cls-1" d="M88.71,2.82a4.67,4.67,0,0,0-2.34.59,2.36,2.36,0,0,0-1.55-.55,2.29,2.29,0,0,0-2.34,2.41v4a1.34,1.34,0,0,0-.56-.12h-.14V6.93c0-2.58-1.69-4.11-4.53-4.11a6,6,0,0,0-4.17,1.43,2.43,2.43,0,0,0-4.58.42L68,6.7l-.54-1.65a2.8,2.8,0,0,0-5.48,0L61.48,6.7l-.48-2a2.29,2.29,0,0,0-2.3-1.85,2.82,2.82,0,0,0-1.23.27,2.7,2.7,0,0,0-1.23-1.75A7.7,7.7,0,0,0,51.88,0c-3.37,0-5.63,1.94-5.63,4.83a3.31,3.31,0,0,0,0,.44,4.3,4.3,0,0,0-4.1-2.45,5,5,0,0,0-3,.84,4.58,4.58,0,0,0-2.75-.84,4.08,4.08,0,0,0-2.18.58,2.31,2.31,0,0,0-1.52-.54,2.29,2.29,0,0,0-1.95,1,2.26,2.26,0,0,0-2-1,2.29,2.29,0,0,0-2.34,2.41V8.88c0,.74-.5.74-.67.74-.34,0-.65-.09-.65-.74V5.25a2.32,2.32,0,0,0-2.35-2.41,2.3,2.3,0,0,0-1.48.52,3,3,0,0,0-.61-1.12A6.6,6.6,0,0,0,15.29,0a6.7,6.7,0,0,0-4.81,1.89,4.82,4.82,0,0,0-2.33-.84C7.67,1,7.19,1,6.74,1H6.3L5,1,4,.93l-.27,0-.24,0H3.39a.9.9,0,0,0-.77.42.87.87,0,0,0,0,.88,1.53,1.53,0,0,0,.1.17v0l.62,1c.47.73.94,1.47,1.42,2.2a7,7,0,0,0,1.77,2,3.32,3.32,0,0,0,2,.66h.06A7.48,7.48,0,0,0,8.91,9.6a5.08,5.08,0,0,0-.73-.48L7.1,8.54l-.49-.26-1-.54v0a3.11,3.11,0,0,0-.22-.45c-.33-.58-.68-1.16-1-1.72-.12-.18-.23-.37-.34-.55S3.63,4.41,3.35,4a.91.91,0,0,0-.79-.48h0a.88.88,0,0,0-.81.57c-.06.15-.13.31-.2.46s-.15.36-.23.53L.78,6.27l-.16.37A6.19,6.19,0,0,0,0,8.89a3,3,0,0,0,1.89,3,3.24,3.24,0,0,0,1.1.2,2.88,2.88,0,0,0,2.63-1.72c.06.4.13.8.2,1.2a2.08,2.08,0,0,0,.8,1.31,1.83,1.83,0,0,0,1.11.34,2.12,2.12,0,0,0,1.51-.63,2,2,0,0,0,.53-1.28A6.57,6.57,0,0,0,15.29,14a6.73,6.73,0,0,0,5.43-2.27c.06-.08.13-.16.18-.24A4.32,4.32,0,0,0,25,14a4.17,4.17,0,0,0,2.25-.6A2.29,2.29,0,0,0,28.8,14a2.26,2.26,0,0,0,1.95-1,2.26,2.26,0,0,0,2,1,2.29,2.29,0,0,0,2.34-2.4V7.94c0-.74.44-.74.58-.74s.58,0,.58.74v3.63a2.34,2.34,0,1,0,4.68,0V7.94c0-.74.44-.74.58-.74s.58,0,.58.74v3.63A2.32,2.32,0,0,0,44.39,14a2.28,2.28,0,0,0,2.27-1.79,3.79,3.79,0,0,0,.47.4A7.85,7.85,0,0,0,51.86,14c3,0,5.16-1.47,5.68-3.75l.17.62c.53,2,1.73,3.13,3.37,3.13s2.79-1,3.45-3.09l.22-.68.22.68C65.63,13,66.79,14,68.42,14s2.85-1.11,3.38-3.13l.85-3.23a2.13,2.13,0,0,0,.47.31,3.3,3.3,0,0,0-1.05,2.53c0,2.07,1.62,3.52,4,3.52a4.55,4.55,0,0,0,2.45-.68,3.17,3.17,0,0,0,1.94.63,3.35,3.35,0,0,0,2.07-.77v.4a2.34,2.34,0,0,0,4.67.22,5.68,5.68,0,0,0,1.56.2c3,0,5.2-2.36,5.2-5.6S91.72,2.82,88.71,2.82Zm-32.65,3,.28-.13,0,.15.08.29A3.79,3.79,0,0,0,56.06,5.84ZM89.15,8.42c0,.72-.4,1.19-1,1.19s-1-.47-1-1.19.4-1.2,1-1.2S89.15,7.69,89.15,8.42ZM47.66,8.06a2.35,2.35,0,0,0-.93.44v-1c0-.22,0-.43,0-.64A3.53,3.53,0,0,0,47.66,8.06ZM19.1,7.56a3,3,0,0,0-2,.78,2.49,2.49,0,0,1-1.8.79A1.91,1.91,0,0,1,13.44,7a1.93,1.93,0,0,1,1.9-2.14,2.45,2.45,0,0,1,1.79.79,3,3,0,0,0,1.93.78A2.32,2.32,0,0,0,20.45,6V8A2.27,2.27,0,0,0,19.1,7.56Z"/><path class="cls-2" d="M30.35,5.25v6.29a1.52,1.52,0,0,1-1.55,1.62,1.48,1.48,0,0,1-1.41-.89A3.1,3.1,0,0,1,25,13.2a3.57,3.57,0,0,1-3.77-3.89V5.25a1.55,1.55,0,1,1,3.1,0V8.88a1.37,1.37,0,0,0,1.45,1.53,1.4,1.4,0,0,0,1.46-1.53V5.25a1.55,1.55,0,1,1,3.1,0Z"/><path class="cls-2" d="M42.84,11.57V7.94c0-1-.51-1.54-1.37-1.54A1.37,1.37,0,0,0,40.1,7.94v3.63a1.55,1.55,0,1,1-3.1,0V7.94c0-1-.51-1.54-1.37-1.54a1.37,1.37,0,0,0-1.37,1.54v3.63a1.55,1.55,0,1,1-3.1,0V5.27a1.52,1.52,0,0,1,1.55-1.62,1.46,1.46,0,0,1,1.4.89,3,3,0,0,1,2.3-.93,3.58,3.58,0,0,1,2.75,1.12,3.74,3.74,0,0,1,3-1.12,3.6,3.6,0,0,1,3.77,3.9v4.06a1.55,1.55,0,1,1-3.1,0Z"/><path class="cls-2" d="M47.6,11.94a2,2,0,0,1-1-1.59A1.53,1.53,0,0,1,48.16,8.8a2,2,0,0,1,1.06.35,5.93,5.93,0,0,0,2.93,1c.9,0,1.3-.28,1.3-.7s-.27-.55-.78-.65l-2.43-.49C48.1,7.91,47,6.75,47,4.83c0-2.42,1.89-4,4.84-4A6.94,6.94,0,0,1,55.8,2a1.91,1.91,0,0,1,.93,1.64,1.4,1.4,0,0,1-1.4,1.53,3.08,3.08,0,0,1-1.51-.52,5,5,0,0,0-2.31-.81c-.57,0-1,.2-1,.66s.29.57.91.71l2.3.53c1.76.41,3.16,1.21,3.16,3.42,0,2.52-2,4.07-5,4.07A7,7,0,0,1,47.6,11.94Z"/><path class="cls-2" d="M58.47,10.69l-1.33-5a2.2,2.2,0,0,1-.07-.58A1.46,1.46,0,0,1,58.7,3.61a1.49,1.49,0,0,1,1.53,1.24l1.12,4.81,1.42-4.37a2,2,0,0,1,2-1.67c1.22,0,1.71,1.07,2,1.92l1.41,4.12,1.12-4.81A1.51,1.51,0,0,1,70.8,3.61a1.46,1.46,0,0,1,1.63,1.46,2.2,2.2,0,0,1-.07.58l-1.33,5c-.35,1.32-1.1,2.53-2.61,2.53-1.29,0-2.16-.87-2.7-2.53l-1-3-1,3c-.54,1.66-1.4,2.53-2.7,2.53C59.57,13.22,58.82,12,58.47,10.69Z"/><path class="cls-2" d="M72.86,10.5c0-1.42.78-2.31,2.38-2.7l2.13-.54a.57.57,0,0,0,.51-.55c0-.3-.27-.47-.73-.47a3.64,3.64,0,0,0-1.71.62,2.64,2.64,0,0,1-1.33.53,1.12,1.12,0,0,1-1.25-1.12,1.67,1.67,0,0,1,.5-1.2,5.16,5.16,0,0,1,3.89-1.46c2.32,0,3.73,1.1,3.73,3.32v3.13a.16.16,0,0,0,.18.17.44.44,0,0,0,.28-.09.71.71,0,0,1,.48-.16c.44,0,.78.45.78,1a2,2,0,0,1-.53,1.38,2.46,2.46,0,0,1-1.76.79,2.35,2.35,0,0,1-1.89-.89,3.51,3.51,0,0,1-2.5.93C74.15,13.22,72.86,12.12,72.86,10.5Zm4,.35a.86.86,0,0,0,1-.83V9.11a1.37,1.37,0,0,1-.52.23l-.53.14a.84.84,0,0,0-.69.76C76.14,10.6,76.45,10.85,76.91,10.85Z"/><path class="cls-2" d="M83.27,13.6V5.27a1.52,1.52,0,0,1,1.55-1.62,1.47,1.47,0,0,1,1.4.87,3.44,3.44,0,0,1,2.49-.91c2.49,0,4.4,1.91,4.4,4.81s-1.91,4.8-4.4,4.8a3.51,3.51,0,0,1-2.34-.68V13.6a1.55,1.55,0,1,1-3.1,0Zm4.86-3.19a1.83,1.83,0,0,0,1.81-2,1.81,1.81,0,1,0-3.61,0A1.82,1.82,0,0,0,88.13,10.41Z"/><path class="cls-2" d="M19.1,8.35a2.19,2.19,0,0,0-1.44.59,3.28,3.28,0,0,1-2.32,1A2.68,2.68,0,0,1,12.65,7a2.7,2.7,0,0,1,2.69-2.93,3.21,3.21,0,0,1,2.32,1,2.16,2.16,0,0,0,1.4.58,1.59,1.59,0,0,0,1.56-1.59,2,2,0,0,0-.52-1.31,5.85,5.85,0,0,0-4.81-2,5.86,5.86,0,0,0-4.36,1.77,3.17,3.17,0,0,1,.79,2v0a3.08,3.08,0,0,1-2,3,2.41,2.41,0,0,1-.41.13,5.75,5.75,0,0,0,6,5.49,5.87,5.87,0,0,0,4.82-2,1.94,1.94,0,0,0,.53-1.29A1.57,1.57,0,0,0,19.1,8.35Z"/><path class="cls-3" d="M10.77,4.5A2.42,2.42,0,0,1,9.21,6.86a2.46,2.46,0,0,1-2.42-.29A5.87,5.87,0,0,1,5.31,4.91l-1.93-3-.07-.11c-.05-.09,0-.14.09-.13l.5,0,2.22.05c.57,0,1.13,0,1.7.06A3.77,3.77,0,0,1,10,2.74,2.41,2.41,0,0,1,10.77,4.5Z"/><path class="cls-4" d="M5,9.63a2.11,2.11,0,0,1-2.87,1.5A2.18,2.18,0,0,1,.8,8.92a5.17,5.17,0,0,1,.54-2l.71-1.59c.15-.33.28-.66.43-1,0-.12.11-.12.2,0,.22.35.45.71.66,1.06.46.75.92,1.49,1.35,2.25a2.72,2.72,0,0,1,.38,1.72C5.06,9.51,5,9.6,5,9.63Z"/><path class="cls-5" d="M6.24,9l1.56.83a3,3,0,0,1,.93.72A1.13,1.13,0,0,1,8.66,12a1.25,1.25,0,0,1-1.57.2,1.26,1.26,0,0,1-.49-.82c-.14-.76-.26-1.52-.38-2.29C6.22,9.1,6.23,9.06,6.24,9Z"/></g></g></svg>